<?xml version="1.0" encoding="UTF-8" standalone="no"?>
<svg
   xmlns:dc="http://purl.org/dc/elements/1.1/"
   xmlns:cc="http://creativecommons.org/ns#"
   xmlns:rdf="http://www.w3.org/1999/02/22-rdf-syntax-ns#"
   xmlns:svg="http://www.w3.org/2000/svg"
   xmlns="http://www.w3.org/2000/svg"
   viewBox="0 0 705.94086 369.96432"
   id="svg851"
   height="369.96432"
   width="705.94086"
   version="1.1">
  <metadata
     id="metadata857">
    <rdf:RDF>
      <cc:Work
         rdf:about="">
        <dc:format>image/svg+xml</dc:format>
        <dc:type
           rdf:resource="http://purl.org/dc/dcmitype/StillImage" />
        <dc:title></dc:title>
      </cc:Work>
    </rdf:RDF>
  </metadata>
  <defs
     id="defs855" />
  <g
     transform="translate(51.035627,7.6082338)"
     id="Layer1000">
    <path
       id="path824"
       style="fill:#e3003a;fill-rule:evenodd;stroke-width:3.75212789"
       d="m 607.41553,-6.9358116 -37.2605,-0.078085 c 39.60259,72.5774136 35.98816,142.8416466 35.14468,183.6858066 -0.73729,39.00374 -10.49245,108.02113 -53.97923,185.68417 h 41.63023 c 17.54758,-26.44911 30.82898,-53.34474 40.53086,-79.82839 12.4019,-33.83781 20.68023,-68.05984 21.35786,-104.1328 C 655.58535,136.76466 650.0671,92.031773 634.21361,51.668267 625.04604,28.670721 618.97246,9.5521296 607.41553,-6.9358469 Z M 262.64188,-7.6081931 h -21.27156 c -3.48798,0.1028182 -6.71105,0.2727803 -9.41671,0.5358088 -9.63359,0.9868074 -30.1735,2.3563271 -46.21909,17.0909413 -17.22565,16.457578 -16.4422,39.984927 -16.81103,57.645066 l -0.0874,6.230783 h -24.23612 l -7.13842,41.370204 28.74242,-0.55943 -4.97832,164.28316 57.24734,0.039 1.45019,-163.61942 37.72089,0.039 8.02618,-42.018569 h -46.70874 l -0.0585,-6.38275 c 0.20486,-8.179264 -1.11063,-25.064215 6.28519,-30.426379 9.00061,-6.553842 27.46932,-5.26236 49.05269,-4.869885 v 0 c 0.2604,0 7.56016,-38.7242083 7.56016,-38.7242083 0,0 -8.59275,-0.4176209 -19.15911,-0.6333625 z m 294.88986,137.8633131 1.35002,-54.327069 -64.08747,-0.0338 -1.38903,54.247899 64.12648,0.11401 z m -7.13392,149.72003 1.311,-53.60627 -64.64728,-0.0877 -1.33614,53.64942 z M 116.71751,44.170794 c 0.654,-15.62236 0.94065,-25.62365 1.08549,-41.129318 -20.768025,0 -37.459365,-0.038984 -58.26454,-0.038984 -0.682145,15.474905 -0.654373,25.505474 -1.126018,41.090311 20.804044,0 37.496892,0.07809 58.305068,0.07809 z m -7.16356,234.856566 c -1.37103,-67.98179 2.437,-136.07653 4.40086,-204.116879 -20.085882,0 -36.209531,-0.0338 -56.301044,-0.0338 -1.205187,68.073729 -2.276793,136.335449 -7.386069,204.111249 21.17439,0 38.217679,0.039 59.286253,0.039 z m -105.2892125,-0.039 c 0,-91.46487 7.4430955,-184.64447 12.2919695,-275.9468686 -19.1324775,0 -38.195538,-0.038984 -57.30287,-0.038984 0.532794,91.4149696 -5.849567,184.5502926 -10.289464,275.9551326 18.96851,0 36.313846,0.03 55.3003645,0.03 z M 329.29468,118.03406 c -14.81377,15.97619 -16.02196,39.44538 -16.02196,39.44538 h 6.13773 l 80.41862,0.31442 5.08525,0.039 0.60409,-5.05749 c 1.20819,-10.90443 -1.45282,-22.94314 -6.78046,-31.49574 -7.95827,-11.34681 -19.36362,-17.14084 -34.0093,-17.2339 -13.17859,-0.039 -26.51853,4.55246 -35.43397,13.98831 z m 106.1841,114.8744 -8.1849,41.9743 c 0,0 -34.52107,8.34775 -76.76515,7.0465 -40.2457,-1.25284 -63.07177,-17.81885 -73.11622,-28.30981 -12.66192,-13.1981 -27.04459,-37.20722 -24.32354,-76.65259 2.51467,-34.9582 16.8054,-62.92994 42.5919,-82.897261 26.05665,-20.140296 52.5752,-22.364184 70.33401,-22.286146 40.95223,0.147467 63.86648,18.391809 75.77273,33.720757 8.28808,10.37013 21.64752,33.83781 18.90697,73.28431 l -0.37296,4.63876 -150.03859,0.0934 c 0,0 -4.85,18.32953 4.58585,39.07767 8.14624,17.78396 29.89095,22.72739 49.71232,22.72739 42.81741,0 70.89758,-12.41729 70.89758,-12.41729 z" />
  </g>
</svg>
